# xmcd
#
# Track frame offsets: 
#        150
#        19107
#        43260
#        88455
#        130178
#        184869
#        203534
#
# Disc length: 3392 seconds
#
# Revision: 0
# Processed by: cddbd v1.5.1PL0 Copyright (c) Steve Scherf et al.
# Submitted via: ExactAudioCopy v0.95b1
#
DISCID=5e0d3e07
DTITLE=L A Jones and The Blues Messengers - Live At The Dead Goat Saloon
DYEAR=1998
DGENRE=Blues
TTITLE0=I'm A Loner
TTITLE1=She Can't Not Be Satisfied
TTITLE2=Mr Fix It
TTITLE3=Stranded
TTITLE4=Pebble In The Sky
TTITLE5=Stop Now
TTITLE6=Long Distance Love
EXTD=Live in 1997 - Salt Lake City\n\n
EXTT0=
EXTT1=
EXTT2=
EXTT3=
EXTT4=
EXTT5=
EXTT6=
PLAYORDER=
